# xmcd
#
# Track frame offsets:
#	150
#	10375
#	25414
#	36864
#	48825
#	58046
#	69965
#	82829
#	90800
#	104109
#	113730
#	126344
#	143510
#	164871
#	177429
#	185923
#
# Disc length: 2695 seconds
#
# Revision: 1
# Processed by: cddbd v1.5.2PL0 Copyright (c) Steve Scherf et al.
# Submitted via: audiograbber 1.83.01
#
DISCID=da0a8510
DTITLE=Verschiedene - Classic Country [CD 3/4)
DYEAR=2007
DGENRE=Country
TTITLE0=Statler Brothers - Do You Know Are My Sunshine
TTITLE1=Dolly Parton - I Will Always Love You (Live)
TTITLE2=Roy Orbisson - Blue Bayou (Live)
TTITLE3=Skeeter Davis - The End of the World
TTITLE4=Jim Reeves - I Wont forget You
TTITLE5=Donna Fargo - Funny Face (new Recording)
TTITLE6=Conway Twitty - I cant't Stop Loving You
TTITLE7=Roger Miller - Dang Me (new Recording)
TTITLE8=Bobby Bare - Detroit City (Live)
TTITLE9=Charley Pride - Kiss an Angel and Good Morning (Live)
TTITLE10=Billy Joe Royal - Raindrops Keep Falling' on my Hand
TTITLE11=Ray Price - For the good Times
TTITLE12=Olivia Neton John - Banks of the Ohio (new Recording)
TTITLE13=Sonny James - Running Bear
TTITLE14=Lorne Greene - Bonanza
TTITLE15=Johnny Cash - A Boy Named Sue
EXTD=
EXTT0=
EXTT1=
EXTT2=
EXTT3=
EXTT4=
EXTT5=
EXTT6=
EXTT7=
EXTT8=
EXTT9=
EXTT10=
EXTT11=
EXTT12=
EXTT13=
EXTT14=
EXTT15=
PLAYORDER=
